<?xml version="1.0" encoding="utf-8"?>
<!-- Generator: Adobe Illustrator 22.1.0, SVG Export Plug-In . SVG Version: 6.00 Build 0)  -->
<svg version="1.1" id="图层_1" xmlns="http://www.w3.org/2000/svg" xmlns:xlink="http://www.w3.org/1999/xlink" x="0px" y="0px"
	 viewBox="0 0 200 100" style="enable-background:new 0 0 200 100;" xml:space="preserve">
<style type="text/css">
	.st0{fill:#FFFFFF;}
	.st1{fill:url(#SVGID_1_);}
	.st2{fill:#0E9B94;}
	.st3{fill:#16A37F;}
</style>
<g>
	<g>
		<g>
			<g>
				<path class="st0" d="M69.6,63.1L69.6,63.1c0.1-0.1,0.1-0.2,0.2-0.3c0,0,0,0,0,0c0.1-0.1,0.1-0.2,0.2-0.3c0,0,0,0,0,0
					c0.4-0.6,0.8-1.2,1.2-1.8v0c0.1-0.1,0.1-0.2,0.1-0.3c0,0,0-0.1,0-0.1c0-0.1,0.1-0.1,0.1-0.2c0,0,0-0.1,0.1-0.1
					c0-0.1,0.1-0.1,0.1-0.2c0,0,0-0.1,0.1-0.1c0-0.1,0.1-0.1,0.1-0.2c0,0,0-0.1,0.1-0.1c0-0.1,0.1-0.1,0.1-0.2c0-0.1,0-0.1,0.1-0.1
					c0-0.1,0.1-0.1,0.1-0.2c0-0.1,0-0.1,0.1-0.1s0.1-0.1,0.1-0.2s0-0.1,0.1-0.1c0-0.1,0.1-0.1,0.1-0.2c0-0.1,0-0.1,0.1-0.2
					c0-0.1,0.1-0.2,0.1-0.4c0-0.1,0-0.1,0.1-0.2s0-0.1,0.1-0.2s0-0.1,0.1-0.2c0-0.1,0-0.1,0-0.2c0-0.1,0-0.1,0.1-0.2
					c0-0.1,0-0.1,0-0.2s0-0.1,0-0.2s0-0.1,0-0.2s0-0.1,0-0.2s0-0.1,0-0.2c0-0.1,0-0.1,0-0.2c0-0.1,0-0.1,0-0.2c0-0.1,0-0.1,0-0.2
					c0-0.1,0-0.1,0-0.2c0-0.1,0-0.2,0-0.2c0-0.1,0-0.1,0-0.1c0-0.1,0-0.2,0-0.3c0,0,0-0.1,0-0.1c0-0.1,0-0.3,0-0.4
					c0-8.2-2-13-10.2-13l0,0l0,0c-0.4,0-0.7,0-1.1,0c-2-3.6-4.8-5.4-8.9-6.5h0c-0.1,0-0.1,0-0.2-0.1c0,0,0,0-0.1,0
					c-0.1,0-0.1,0-0.2,0c0,0-0.1,0-0.1,0c-0.1,0-0.1,0-0.2,0c0,0-0.1,0-0.1,0c-0.1,0-0.1,0-0.1,0s-0.1,0-0.1,0c-0.1,0-0.1,0-0.1,0
					c0,0-0.1,0-0.1,0c-0.1,0-0.1,0-0.1,0c0,0-0.1,0-0.1,0c-0.1,0-0.1,0-0.1,0c0,0-0.1,0-0.1,0c-0.1,0-0.1,0-0.1,0c0,0-0.1,0-0.1,0
					s-0.1,0-0.1,0s-0.1,0-0.1,0s-0.1,0-0.1,0c-0.1,0-0.1,0-0.1,0s-0.1,0-0.1,0c-0.1,0-0.1,0-0.1,0c0,0-0.1,0-0.1,0
					c-0.1,0-0.1,0-0.1,0c0,0-0.1,0-0.1,0s-0.1,0-0.2,0c0,0-0.1,0-0.1,0c-0.1,0-0.2,0-0.3,0l0,0l0,0l0,0l0,0c-0.1,0-0.2,0-0.3,0
					c0,0-0.1,0-0.1,0c-0.1,0-0.1,0-0.2,0c0,0-0.1,0-0.1,0c-0.1,0-0.1,0-0.1,0c0,0-0.1,0-0.1,0c-0.1,0-0.1,0-0.1,0c0,0-0.1,0-0.1,0
					s-0.1,0-0.1,0s-0.1,0-0.1,0s-0.1,0-0.1,0s-0.1,0-0.1,0s-0.1,0-0.1,0c-0.1,0-0.1,0-0.1,0c0,0-0.1,0-0.1,0c-0.1,0-0.1,0-0.1,0
					c0,0-0.1,0-0.1,0c-0.1,0-0.1,0-0.2,0c0,0-0.1,0-0.1,0c-0.1,0-0.1,0-0.1,0c0,0-0.1,0-0.1,0c-0.1,0-0.1,0-0.1,0s-0.1,0-0.1,0
					c-0.1,0-0.1,0-0.2,0c0,0-0.1,0-0.1,0c-0.1,0-0.1,0-0.2,0c0,0,0,0-0.1,0c-0.1,0-0.1,0-0.2,0.1h0c-4.1,1-6.7,3.5-8.6,7.1
					c-0.4,0-0.7,0-1.1,0l0,0l0,0c-8.2,0-14.5,5.1-14.5,13.4c0,0.1,0,0.3,0,0.4c0,0,0,0.1,0,0.1c0,0.1,0,0.2,0,0.3c0,0.1,0,0.1,0,0.1
					c0,0.1,0,0.2,0,0.2c0,0.1,0,0.1,0,0.2c0,0.1,0,0.1,0,0.2c0,0.1,0,0.1,0,0.2c0,0.1,0,0.1,0,0.2c0,0.1,0,0.1,0,0.2s0,0.1,0,0.2
					s0,0.1,0,0.2s0,0.1,0,0.2s0,0.1,0,0.2s0,0.1,0.1,0.2c0,0.1,0,0.1,0,0.2c0,0.1,0.1,0.2,0.1,0.2c0,0.1,0,0.1,0.1,0.2
					s0,0.1,0.1,0.2c0,0.1,0.1,0.2,0.1,0.4c0,0.1,0,0.1,0.1,0.2s0.1,0.1,0.1,0.2c0,0.1,0,0.1,0.1,0.1c0,0.1,0.1,0.1,0.1,0.2
					c0,0.1,0,0.1,0.1,0.1c0,0.1,0,0.2,0.1,0.2s0,0.1,0.1,0.1c0,0.1,0.1,0.1,0.1,0.2s0,0.1,0.1,0.1c0,0.1,0.1,0.1,0.1,0.2
					c0,0,0,0.1,0.1,0.1c0,0.1,0.1,0.1,0.1,0.2c0,0,0,0.1,0.1,0.1c0,0.1,0.1,0.2,0.1,0.2c0,0,0,0.1,0,0.1c0.1,0.1,0.1,0.2,0.1,0.3v0
					c0.4,0.6,0.7,1.2,1.2,1.8c0,0,0,0,0,0c0.1,0.1,0.1,0.2,0.2,0.3c0,0,0,0,0,0c0.1,0.1,0.1,0.2,0.2,0.3l0,0
					c0.3,0.4-0.2,0.1,0.2,0.5c0,0-0.4,0.6-0.4,0.6c0.2,0.2,0.5,0.4,0.7,0.7l0,0l0,0l0,0c1.5,1.2,3.4,2,5.5,2l0,0h12.4h12l7.2-1l0,0
					c2.1,0,4-0.8,5.5-2l0,0l0,0l0,0c0.3-0.2,0.5-0.4,0.7-0.7c0,0,0.1-0.1,0.1-0.1C69,63.9,69.3,63.5,69.6,63.1z"/>
			</g>
			<g>
				
					<linearGradient id="SVGID_1_" gradientUnits="userSpaceOnUse" x1="31.152" y1="73.8598" x2="58.2434" y2="106.4839" gradientTransform="matrix(1 0 0 -1 0 150.1102)">
					<stop  offset="0" style="stop-color:#41AB6C"/>
					<stop  offset="1.799445e-02" style="stop-color:#41AB6F"/>
					<stop  offset="0.4489" style="stop-color:#44B09E"/>
					<stop  offset="0.7613" style="stop-color:#46B3B9"/>
					<stop  offset="0.9212" style="stop-color:#46B4C4"/>
				</linearGradient>
				<path class="st1" d="M63.4,39.6c-0.4,0-0.7,0-1.1,0l0,0c-0.1-0.2-0.3-0.4-0.4-0.7l0,0l0,0c0,0,0,0,0,0l0,0
					c-2.6-4.3-7.3-7.2-12.7-7.2c-5.7,0-10.6,3.2-13.1,7.9c-0.4,0-0.7,0-1.1,0c-8.2,0-14.9,6.7-14.9,14.9c0,4.2,1.7,7.9,4.5,10.6
					c0.5,0.5,1.2,0.9,2,0.9c0.8,0,1.5-0.3,2-0.9l0,0c4.1-4.4,7.2-9.4,9.2-14.8c7.8-1.1,15.4-4.2,21.8-9.4l0,0c0,0,0,0,0.1,0
					c0.1,0,0.1,0.1,0.1,0.1c0,0,0,0.1,0,0.1l0,0l0,0l0,0c-4.9,5-10.1,9.8-15.5,14.2c-0.1,0-0.1,0-0.2,0c-0.4,0-0.8,0.1-1.1,0.4
					s-0.4,0.6-0.5,1.1c0,0.4,0.1,0.8,0.4,1.1s0.7,0.5,1.1,0.5s0.8-0.1,1.1-0.4s0.4-0.7,0.5-1.1c0-0.1,0-0.1,0-0.2
					c4.6-5.2,9.5-10.3,14.7-15.1l0,0l0,0l0,0c0,0,0.1,0,0.1,0c0.1,0,0.1,0.1,0.1,0.1c0,0,0,0.1,0,0.1l0,0c-5.4,6.3-8.8,13.8-10,21.6
					c-2.6,0.9-5.1,2-7.5,3.3c-0.2,0.1-0.4,0.4-0.4,0.6c0,0.4,0.3,0.7,0.7,0.7l0,0h24.4l0,0c2.1,0,4-0.8,5.5-2l0,0l0,0l0,0
					c3.3-2.7,5.3-6.8,5.3-11.4C78.3,46.3,71.7,39.6,63.4,39.6z"/>
			</g>
			<g>
				<g>
					<path class="st2" d="M60.3,41.8L60.3,41.8L60.3,41.8c-5.4,6.3-8.8,13.8-10.1,21.6c-2.6,0.9-5.1,2-7.5,3.3
						c-0.2,0.1-0.4,0.4-0.4,0.6c0,0.4,0.3,0.7,0.7,0.7l0,0h6.1c-0.2,0-0.4-0.2-0.4-0.4c0-0.1,0.1-0.2,0.2-0.3l0,0
						c1.3-0.9,2.7-1.6,4.1-2.3C53.3,57,55.7,48.9,60.3,41.8z"/>
					<path class="st2" d="M43.4,58.3C43.1,58,43,57.6,43,57.2c0-0.4,0.1-0.8,0.4-1.1c0.3-0.3,0.6-0.4,1.1-0.5c0.1,0,0.1,0,0.2,0
						c5.2-4.6,10.3-9.4,15-14.5c-4.9,5-10.1,9.7-15.5,14.2c-0.1,0-0.1,0-0.2,0c-0.4,0-0.8,0.1-1.1,0.4s-0.4,0.6-0.5,1.1
						c0,0.4,0.1,0.8,0.4,1.1C43.1,58.1,43.2,58.2,43.4,58.3z"/>
				</g>
			</g>
		</g>
	</g>
	<g>
		<path class="st3" d="M85,39.5V37h-0.7v-0.8l0.8-0.1l0.1-1.4h0.9v1.4h1.3V37h-1.3v2.6c0,0.6,0.2,0.9,0.7,0.9c0.2,0,0.4-0.1,0.5-0.1
			l0.2,0.8c-0.3,0.1-0.6,0.2-1,0.2C85.4,41.3,85,40.6,85,39.5z"/>
		<path class="st3" d="M88.2,39.8c0-1.1,0.9-1.6,3-1.8c0-0.6-0.2-1.1-1-1.1c-0.5,0-1,0.2-1.4,0.5l-0.4-0.7c0.5-0.3,1.2-0.6,2-0.6
			c1.3,0,1.8,0.8,1.8,2.1v3h-0.9l-0.1-0.6h0c-0.5,0.4-1,0.7-1.6,0.7C88.8,41.3,88.2,40.7,88.2,39.8z M91.2,39.9v-1.2
			c-1.5,0.2-2,0.6-2,1.1c0,0.5,0.3,0.7,0.8,0.7C90.4,40.5,90.8,40.2,91.2,39.9z"/>
		<path class="st3" d="M93.3,40v-6.1h1V40c0,0.3,0.1,0.4,0.3,0.4c0.1,0,0.1,0,0.2,0l0.1,0.8c-0.1,0.1-0.3,0.1-0.6,0.1
			C93.6,41.3,93.3,40.8,93.3,40z"/>
		<path class="st3" d="M95.7,39.3v-3.2h1.1v3c0,0.9,0.2,1.2,0.9,1.2c0.5,0,0.8-0.2,1.2-0.7v-3.5h1.1v5H99l-0.1-0.8h0
			c-0.5,0.5-0.9,0.9-1.6,0.9C96.1,41.3,95.7,40.6,95.7,39.3z"/>
		<path class="st3" d="M100.7,40.6l0.5-0.7c0.4,0.4,0.9,0.6,1.4,0.6c0.6,0,0.9-0.3,0.9-0.7c0-0.5-0.6-0.6-1.1-0.9
			c-0.7-0.3-1.4-0.6-1.4-1.5c0-0.9,0.7-1.5,1.8-1.5c0.7,0,1.2,0.3,1.6,0.6l-0.5,0.6c-0.4-0.3-0.7-0.4-1.1-0.4
			c-0.6,0-0.8,0.3-0.8,0.6c0,0.4,0.5,0.6,1.1,0.8c0.7,0.3,1.5,0.6,1.5,1.5c0,0.9-0.7,1.5-1.9,1.5C101.9,41.3,101.2,41,100.7,40.6z"
			/>
		<path class="st3" d="M105.9,39.5V37h-0.7v-0.8l0.8-0.1l0.1-1.4h0.9v1.4h1.3V37h-1.3v2.6c0,0.6,0.2,0.9,0.7,0.9
			c0.2,0,0.4-0.1,0.5-0.1l0.2,0.8c-0.3,0.1-0.6,0.2-1,0.2C106.3,41.3,105.9,40.6,105.9,39.5z"/>
		<path class="st3" d="M109.2,40.5c0-0.4,0.3-0.7,0.7-0.7s0.7,0.3,0.7,0.7c0,0.4-0.3,0.7-0.7,0.7C109.5,41.3,109.2,41,109.2,40.5z"
			/>
		<path class="st3" d="M111.9,38.7c0-1.7,1.1-2.6,2.5-2.6c0.6,0,1.1,0.3,1.5,0.6l-0.5,0.7c-0.3-0.2-0.6-0.4-0.9-0.4
			c-0.9,0-1.4,0.7-1.4,1.8c0,1.1,0.6,1.8,1.4,1.8c0.4,0,0.8-0.2,1.1-0.5l0.4,0.7c-0.5,0.4-1.1,0.6-1.6,0.6
			C112.9,41.3,111.9,40.3,111.9,38.7z"/>
		<path class="st3" d="M116.2,38.7c0-1.7,1.1-2.6,2.3-2.6c1.2,0,2.3,1,2.3,2.6c0,1.7-1.1,2.6-2.3,2.6
			C117.3,41.3,116.2,40.3,116.2,38.7z M119.8,38.7c0-1.1-0.5-1.8-1.3-1.8c-0.8,0-1.3,0.7-1.3,1.8c0,1.1,0.5,1.8,1.3,1.8
			C119.3,40.4,119.8,39.7,119.8,38.7z"/>
		<path class="st3" d="M121.7,36.1h0.9l0.1,0.7h0c0.4-0.5,0.9-0.8,1.6-0.8c0.7,0,1.2,0.4,1.4,0.9c0.5-0.5,1-0.9,1.6-0.9
			c1.1,0,1.6,0.7,1.6,2v3.2h-1.1v-3c0-0.9-0.3-1.2-0.9-1.2c-0.4,0-0.7,0.2-1.1,0.7v3.5h-1.1v-3c0-0.9-0.3-1.2-0.9-1.2
			c-0.3,0-0.7,0.2-1.1,0.7v3.5h-1L121.7,36.1L121.7,36.1z"/>
	</g>
	<g>
		<polygon class="st0" points="108.8,51.7 108.8,48.5 104.6,48.5 104.6,51.7 84.6,51.7 84.6,53.9 95.4,53.9 84.6,67.8 89.2,67.8 
			100.1,53.9 104.6,53.9 104.6,65.6 98.5,65.6 98.5,67.8 108.8,67.8 108.8,53.9 113.6,53.9 113.6,51.7 		"/>
		<g>
			<rect x="153.9" y="49.4" class="st0" width="23.5" height="2.3"/>
			<polygon class="st0" points="180,58.5 180,56.3 151.3,56.3 151.3,58.5 157.6,58.5 152,65.6 152,65.6 152,67.9 174.5,67.9 
				174.8,68.4 179.3,68.4 175.3,60.7 170.8,60.7 173.4,65.7 157.4,65.7 163.1,58.5 			"/>
		</g>
		<g>
			<polygon class="st0" points="121.9,50.5 122.9,48.5 119.5,48.5 116.9,52.7 127.5,52.7 127.5,50.5 			"/>
			<polygon class="st0" points="127.5,57.2 127.5,55 116.9,55 116.9,57.2 119.4,57.2 119.4,59.9 116.9,59.9 116.9,62.2 119.4,62.2 
				119.4,67.9 127.5,67.9 127.5,65.5 123.3,65.5 123.3,62.2 127.5,62.2 127.5,59.9 123.3,59.9 123.3,57.2 			"/>
			<polygon class="st0" points="147.1,58.4 147.1,56.1 144.2,56.1 144.2,54.1 140,54.1 140,56.1 138.4,56.1 139,52.9 147,52.9 
				147,50.7 139.4,50.7 139.8,48.5 136.1,48.5 135.7,50.7 134,50.7 134,52.9 135.3,52.9 134.3,58.4 140,58.4 140,60.4 134,60.4 
				134,62.4 140,62.4 140,65.6 132.8,65.6 132.8,53.9 128.7,53.9 128.7,67.9 147,67.9 147,65.6 144.2,65.6 144.2,62.4 147,62.4 
				147,60.4 144.2,60.4 144.2,58.4 			"/>
			<path class="st0" d="M132.8,50.6c0,1.1-0.9,2.1-2.1,2.1c-1.1,0-2.1-0.9-2.1-2.1s0.9-2.1,2.1-2.1
				C131.9,48.5,132.8,49.5,132.8,50.6z"/>
		</g>
	</g>
</g>
</svg>
