<?xml version="1.0" encoding="utf-8"?>
<!-- Generator: Adobe Illustrator 16.0.0, SVG Export Plug-In . SVG Version: 6.00 Build 0)  -->
<!DOCTYPE svg PUBLIC "-//W3C//DTD SVG 1.1//EN" "http://www.w3.org/Graphics/SVG/1.1/DTD/svg11.dtd">
<svg version="1.1" id="图层_1" xmlns="http://www.w3.org/2000/svg" xmlns:xlink="http://www.w3.org/1999/xlink" x="0px" y="0px"
	 width="223.178px" height="223.402px" viewBox="0 242.019 223.178 223.402" enable-background="new 0 242.019 223.178 223.402"
	 xml:space="preserve">
<g>
	<g>
		<g>
			<path fill="#FFFFFF" d="M189.869,446.804L189.869,446.804c0.336-0.336,0.561-0.673,0.897-1.121c0,0,0,0,0.112-0.112
				c0.225-0.337,0.561-0.673,0.785-1.01c0,0,0,0,0-0.112c1.682-2.131,3.14-4.485,4.486-6.841v-0.112
				c0.225-0.336,0.336-0.673,0.561-1.009c0-0.112,0.112-0.225,0.112-0.337c0.112-0.336,0.336-0.561,0.449-0.897
				c0.112-0.111,0.112-0.224,0.224-0.448c0.112-0.336,0.225-0.561,0.449-0.897c0.112-0.112,0.112-0.336,0.224-0.448
				c0.112-0.337,0.225-0.561,0.337-0.897c0.112-0.112,0.112-0.336,0.224-0.448c0.112-0.337,0.224-0.561,0.336-0.785
				s0.112-0.337,0.224-0.561c0.112-0.225,0.225-0.561,0.336-0.785c0.112-0.225,0.112-0.337,0.225-0.561
				c0.112-0.225,0.224-0.562,0.336-0.785c0.112-0.225,0.112-0.449,0.224-0.561c0.112-0.225,0.225-0.562,0.225-0.785
				c0.112-0.225,0.112-0.449,0.224-0.673c0.112-0.449,0.224-0.897,0.449-1.346c0.112-0.225,0.112-0.562,0.224-0.785
				c0.112-0.225,0.112-0.449,0.224-0.673c0.112-0.225,0.112-0.562,0.225-0.785c0-0.225,0.112-0.449,0.112-0.673
				c0.112-0.225,0.112-0.562,0.225-0.785c0-0.225,0.112-0.449,0.112-0.673c0-0.225,0.112-0.562,0.112-0.785
				c0-0.225,0.112-0.448,0.112-0.673s0.112-0.561,0.112-0.785s0.112-0.449,0.112-0.673c0-0.337,0.112-0.562,0.112-0.897
				c0-0.225,0-0.448,0.112-0.673c0-0.337,0.112-0.561,0.112-0.897c0-0.225,0-0.448,0.112-0.672c0-0.337,0-0.674,0.112-0.898
				c0-0.224,0-0.448,0-0.561c0-0.336,0-0.672,0-1.121c0-0.112,0-0.336,0-0.449c0-0.561,0-1.009,0-1.569
				c0-31.514-7.626-49.57-39.14-49.57l0,0l0,0c-1.458,0-2.804,0-4.262,0.112c-7.514-13.907-18.281-20.748-33.869-24.785h-0.112
				c-0.224-0.112-0.449-0.112-0.785-0.224c-0.112,0-0.112,0-0.224,0c-0.225,0-0.449-0.112-0.673-0.112c-0.112,0-0.225,0-0.225-0.112
				c-0.224,0-0.448-0.112-0.673-0.112c-0.112,0-0.224,0-0.336-0.112c-0.224,0-0.449-0.112-0.561-0.112c-0.112,0-0.225,0-0.336-0.112
				c-0.225,0-0.336-0.112-0.561-0.112c-0.112,0-0.224,0-0.336-0.112c-0.224,0-0.336-0.112-0.561-0.112c-0.112,0-0.225,0-0.449-0.112
				c-0.224,0-0.336,0-0.561-0.112c-0.112,0-0.336,0-0.449-0.112c-0.224,0-0.336,0-0.561-0.112c-0.112,0-0.337,0-0.449,0
				c-0.112,0-0.336,0-0.449,0s-0.336,0-0.449,0c-0.112,0-0.336,0-0.448,0c-0.225,0-0.336,0-0.449,0s-0.336,0-0.449,0
				c-0.224,0-0.336,0-0.561,0c-0.112,0-0.336,0-0.449,0c-0.224,0-0.336,0-0.561,0c-0.112,0-0.225,0-0.449,0s-0.449,0-0.673,0
				c-0.112,0-0.225,0-0.336,0c-0.336,0-0.673,0-1.009,0l0,0l0,0l0,0l0,0c-0.336,0-0.673,0-1.01,0c-0.112,0-0.224,0-0.336,0
				c-0.224,0-0.448,0-0.673,0c-0.112,0-0.224,0-0.448,0c-0.225,0-0.336,0-0.561,0c-0.112,0-0.336,0-0.449,0
				c-0.224,0-0.336,0-0.561,0c-0.112,0-0.336,0-0.449,0c-0.112,0-0.336,0-0.448,0c-0.112,0-0.337,0-0.449,0
				c-0.112,0-0.336,0-0.449,0s-0.336,0-0.449,0c-0.112,0-0.336,0-0.448,0c-0.225,0-0.336,0-0.561,0.112
				c-0.112,0-0.336,0-0.449,0.112c-0.224,0-0.336,0-0.561,0.112c-0.112,0-0.224,0-0.449,0.112c-0.224,0.112-0.448,0.112-0.673,0.112
				c-0.112,0-0.224,0-0.336,0.112c-0.224,0-0.336,0.112-0.561,0.112c-0.112,0-0.225,0-0.336,0.112c-0.225,0-0.449,0.112-0.561,0.112
				c-0.112,0-0.224,0-0.336,0.112c-0.224,0-0.448,0.112-0.673,0.112c-0.112,0-0.224,0-0.224,0.112c-0.225,0-0.449,0.112-0.673,0.112
				c-0.112,0-0.112,0-0.225,0c-0.224,0.112-0.448,0.112-0.785,0.224h-0.112c-15.701,3.925-25.458,13.233-32.972,27.14
				c-1.346-0.112-2.804-0.112-4.262-0.112l0,0l0,0c-31.402-0.112-55.402,19.626-55.402,51.14c0,0.561,0,1.01,0,1.57
				c0,0.112,0,0.336,0,0.449c0,0.336,0,0.672,0,1.121c0,0.225,0,0.448,0,0.561c0,0.336,0,0.673,0.112,0.897
				c0,0.224,0,0.448,0.112,0.673c0,0.336,0.112,0.561,0.112,0.896c0,0.225,0,0.449,0.112,0.674c0,0.336,0,0.561,0,0.896
				c0,0.225,0.112,0.449,0.112,0.673c0,0.225,0.112,0.562,0.112,0.785c0,0.225,0.112,0.449,0.112,0.673
				c0,0.225,0.112,0.561,0.112,0.785s0.112,0.449,0.112,0.673c0,0.225,0.112,0.561,0.224,0.785c0,0.225,0.112,0.448,0.112,0.673
				c0.112,0.337,0.224,0.673,0.224,0.897c0.112,0.225,0.112,0.448,0.224,0.673c0.112,0.225,0.112,0.561,0.225,0.785
				c0.112,0.448,0.224,0.897,0.448,1.346c0.112,0.225,0.112,0.448,0.225,0.673c0.112,0.225,0.224,0.561,0.224,0.785
				c0.112,0.225,0.112,0.448,0.224,0.561c0.112,0.225,0.225,0.561,0.337,0.785c0.112,0.225,0.112,0.336,0.224,0.561
				c0,0.449,0.112,0.673,0.224,0.897c0.112,0.225,0.112,0.336,0.225,0.561c0.112,0.225,0.224,0.561,0.336,0.785
				c0.112,0.225,0.112,0.336,0.224,0.448c0.112,0.337,0.224,0.562,0.336,0.897c0.112,0.112,0.112,0.337,0.224,0.448
				c0.112,0.337,0.225,0.562,0.449,0.897c0.112,0.112,0.112,0.225,0.225,0.337c0.112,0.336,0.336,0.673,0.448,0.896
				c0,0.112,0.112,0.225,0.112,0.337c0.224,0.336,0.336,0.673,0.561,1.009v0.112c1.346,2.355,2.804,4.711,4.486,6.842
				c0,0,0,0,0,0.112c0.224,0.336,0.561,0.673,0.785,1.009c0,0,0,0,0.112,0.112c0.224,0.336,0.561,0.673,0.785,1.009l0,0
				c1.233,1.458-0.673,0.449,0.673,1.795c0.112,0.112-1.682,2.355-1.682,2.467c0.897,0.897,1.794,1.683,2.804,2.58l0,0l0,0l0,0
				c5.607,4.71,12.897,7.626,20.86,7.626l0,0h47.551h45.981l27.364-3.925l0,0c7.963,0,15.252-2.916,20.86-7.627l0,0l0,0l0,0
				c1.009-0.785,1.907-1.682,2.804-2.579c0.112-0.112,0.224-0.225,0.336-0.225C187.29,449.72,188.636,448.262,189.869,446.804z"/>
		</g>
		<g>
			
				<linearGradient id="SVGID_1_" gradientUnits="userSpaceOnUse" x1="30.6528" y1="619.0977" x2="123.0521" y2="730.367" gradientTransform="matrix(1.1215 0 0 -1.1215 8.2793 1191.3525)">
				<stop  offset="0" style="stop-color:#3EB370"/>
				<stop  offset="0.018" style="stop-color:#3EB372"/>
				<stop  offset="0.4489" style="stop-color:#42B8A5"/>
				<stop  offset="0.7613" style="stop-color:#44BCC4"/>
				<stop  offset="0.9212" style="stop-color:#45BDCF"/>
			</linearGradient>
			<path fill="url(#SVGID_1_)" d="M166.093,356.972c-1.458,0-2.804,0-4.262,0.112l0,0c-0.448-0.897-1.009-1.682-1.458-2.579l0,0l0,0
				c0,0,0-0.112-0.112-0.112l0,0c-9.981-16.486-28.038-27.365-48.673-27.365c-21.757,0-40.71,12.112-50.243,30.056
				c-1.346-0.112-2.804-0.112-4.262-0.112C25.57,356.972,0,382.43,0,413.943c0,15.926,6.505,30.394,17.159,40.711
				c1.907,2.019,4.71,3.252,7.738,3.252c3.028,0,5.832-1.233,7.739-3.364l0,0c15.701-16.822,27.477-36.112,35.103-56.523
				c29.832-4.037,58.767-15.925,83.551-35.888l0,0c0.112,0,0.112-0.112,0.225-0.112c0.224,0,0.448,0.225,0.448,0.449
				c0,0.112,0,0.224-0.112,0.336l0,0l0,0l0,0c-18.841,19.065-38.804,37.346-59.327,54.393c-0.225,0-0.561-0.112-0.785-0.112
				c-1.458,0-2.916,0.561-4.038,1.683c-1.121,1.121-1.682,2.467-1.794,4.037c0,1.57,0.561,3.028,1.682,4.149
				c1.122,1.122,2.579,1.795,4.149,1.795s2.916-0.562,4.038-1.683c1.121-1.121,1.682-2.579,1.794-4.037c0-0.225,0-0.449,0-0.673
				c17.608-19.963,36.449-39.365,56.075-57.645l0,0l0,0l0,0c0.112-0.112,0.224-0.112,0.336-0.112c0.224,0,0.448,0.224,0.448,0.449
				c0,0.112,0,0.224-0.112,0.224l0,0c-20.748,24.224-33.533,52.823-38.355,82.542c-9.757,3.364-19.402,7.514-28.598,12.784
				c-0.785,0.449-1.346,1.347-1.346,2.243c0,1.458,1.122,2.58,2.58,2.58l0,0h93.308l0,0c7.963,0,15.252-2.916,20.86-7.627l0,0l0,0
				l0,0c12.449-10.43,20.412-26.131,20.412-43.737C223.178,382.43,197.607,356.972,166.093,356.972z"/>
		</g>
		<g>
			<g>
				<path fill="#00A29A" d="M154.318,365.271L154.318,365.271L154.318,365.271c-20.748,24.224-33.533,52.934-38.467,82.542
					c-9.757,3.364-19.402,7.514-28.598,12.784c-0.785,0.449-1.346,1.347-1.346,2.243c0,1.458,1.121,2.58,2.579,2.58l0,0h23.327
					c-0.785,0-1.346-0.673-1.346-1.346c0-0.449,0.224-0.897,0.673-1.122l0,0c5.047-3.252,10.206-6.168,15.589-8.859
					C127.402,423.252,136.486,392.523,154.318,365.271z"/>
				<path fill="#00A29A" d="M89.495,428.299c-1.009-1.121-1.682-2.467-1.682-4.037s0.561-3.028,1.682-4.149
					c1.01-1.122,2.467-1.683,4.038-1.794c0.224,0,0.561,0,0.785,0c19.962-17.496,39.252-36.113,57.533-55.515
					c-18.841,19.065-38.692,37.233-59.215,54.169c-0.225,0-0.561-0.113-0.785-0.113c-1.458,0-2.916,0.561-4.038,1.683
					s-1.682,2.468-1.794,4.037c0,1.57,0.561,3.028,1.683,4.149C88.262,427.514,88.822,427.963,89.495,428.299z"/>
			</g>
		</g>
	</g>
</g>
</svg>
